<?xml version="1.0" encoding="UTF-8" standalone="no"?><!DOCTYPE svg PUBLIC "-//W3C//DTD SVG 1.1//EN" "http://www.w3.org/Graphics/SVG/1.1/DTD/svg11.dtd"><svg width="100%" height="100%" viewBox="0 0 1600 2134" version="1.1" xmlns="http://www.w3.org/2000/svg" xmlns:xlink="http://www.w3.org/1999/xlink" xml:space="preserve" xmlns:serif="http://www.serif.com/" style="fill-rule:evenodd;clip-rule:evenodd;stroke-linejoin:round;stroke-miterlimit:2;"><path d="M0,133.333l145.417,1649.17l654.583,217.5l654.583,-217.5l145.417,-1649.17l-1600,0Zm1304.58,333.334l-20,197.083l-480.416,205.417l-1.25,0.416l464.583,0l-53.333,610.834l-409.167,119.583l-411.667,-121.667l-26.666,-307.916l203.75,-0l13.333,159.583l219.167,55.417l227.916,-64.167l15.417,-256.667l-692.917,-2.083l0,-0.417l-0.833,0.417l-15,-192.917l467.083,-194.583l27.084,-11.25l-512.084,-0l-24.166,-197.083l1009.17,-0Z" style="fill:#fff;fill-rule:nonzero;"/></svg>