<?xml version="1.0" encoding="UTF-8" standalone="no"?><!DOCTYPE svg PUBLIC "-//W3C//DTD SVG 1.1//EN" "http://www.w3.org/Graphics/SVG/1.1/DTD/svg11.dtd"><svg width="100%" height="100%" viewBox="0 0 1867 2134" version="1.1" xmlns="http://www.w3.org/2000/svg" xmlns:xlink="http://www.w3.org/1999/xlink" xml:space="preserve" xmlns:serif="http://www.serif.com/" style="fill-rule:evenodd;clip-rule:evenodd;stroke-linejoin:round;stroke-miterlimit:2;"><path d="M1866.67,200l-0,1400c-262.5,95.833 -341.667,133.333 -495.834,133.333c-262.5,0 -362.5,-133.333 -625,-133.333c-83.333,0 -150,16.667 -212.5,33.333l0,-266.666c62.5,-16.667 129.167,-33.334 212.5,-33.334c262.5,0 362.5,133.334 625,133.334c83.334,-0 145.834,-12.5 229.167,-37.5l0,-866.667c-83.333,25 -145.833,37.5 -229.167,37.5c-262.5,-0 -362.5,-133.333 -625,-133.333c-212.5,-0 -312.5,87.5 -479.166,120.833l-0,1279.17c-0,75 -58.334,133.333 -133.334,133.333c-75,0 -133.333,-58.333 -133.333,-133.333l-0,-1600c-0,-75 58.333,-133.334 133.333,-133.334c75,0 133.334,58.334 133.334,133.334l-0,54.166c166.666,-33.333 266.666,-120.833 479.166,-120.833c262.5,0 362.5,133.333 625,133.333c154.167,0 233.334,-37.5 495.834,-133.333Z" style="fill:#fff;fill-rule:nonzero;"/></svg>