<?xml version="1.0" encoding="UTF-8" standalone="no"?><!DOCTYPE svg PUBLIC "-//W3C//DTD SVG 1.1//EN" "http://www.w3.org/Graphics/SVG/1.1/DTD/svg11.dtd"><svg width="100%" height="100%" viewBox="0 0 1867 2134" version="1.1" xmlns="http://www.w3.org/2000/svg" xmlns:xlink="http://www.w3.org/1999/xlink" xml:space="preserve" xmlns:serif="http://www.serif.com/" style="fill-rule:evenodd;clip-rule:evenodd;stroke-linejoin:round;stroke-miterlimit:2;"><path d="M1666.67,133.333l-1466.67,0c-110.417,0 -200,89.584 -200,200l0,1466.67c0,110.417 89.583,200 200,200l1466.67,0c110.416,0 200,-89.583 200,-200l-0,-1466.67c-0,-110.416 -89.584,-200 -200,-200Zm-650.834,1455.83c0,181.666 -106.666,264.583 -262.083,264.583c-140.417,0 -221.667,-72.5 -263.333,-160.417l142.916,-86.25c27.5,48.75 52.5,90 112.917,90c57.5,0 94.167,-22.5 94.167,-110.416l-0,-596.25l175.416,-0l0,598.75Zm415,264.583c-162.916,-0 -268.333,-77.5 -319.583,-179.167l142.917,-82.5c37.5,61.25 86.666,106.667 172.916,106.667c72.5,-0 119.167,-36.25 119.167,-86.667c0,-60 -47.5,-81.25 -127.917,-116.666l-43.75,-18.75c-126.666,-53.75 -210.416,-121.667 -210.416,-264.584c-0,-131.666 100.416,-231.666 256.666,-231.666c111.667,-0 191.667,38.75 249.167,140.416l-136.667,87.5c-30,-53.75 -62.5,-75 -112.916,-75c-51.25,0 -83.75,32.5 -83.75,75c-0,52.5 32.5,73.75 107.916,106.667l43.75,18.75c149.167,63.75 232.917,129.167 232.917,275.833c0,157.5 -124.167,244.167 -290.417,244.167Z" style="fill:#fff;fill-rule:nonzero;"/></svg>