<?xml version="1.0" encoding="UTF-8" standalone="no"?><!DOCTYPE svg PUBLIC "-//W3C//DTD SVG 1.1//EN" "http://www.w3.org/Graphics/SVG/1.1/DTD/svg11.dtd"><svg width="100%" height="100%" viewBox="0 0 2134 2134" version="1.1" xmlns="http://www.w3.org/2000/svg" xmlns:xlink="http://www.w3.org/1999/xlink" xml:space="preserve" xmlns:serif="http://www.serif.com/" style="fill-rule:evenodd;clip-rule:evenodd;stroke-linejoin:round;stroke-miterlimit:2;"><path d="M1742.5,738.333c-22.5,-7.5 -45,-14.583 -67.5,-21.25c3.75,-15.416 7.083,-30.833 10.417,-46.25c51.25,-248.333 17.5,-447.916 -96.25,-513.75c-109.584,-62.916 -288.334,2.5 -469.167,160c-17.917,15.417 -35.417,31.667 -52.083,47.917c-11.25,-10.833 -22.917,-21.667 -34.584,-32.083c-189.583,-168.334 -379.583,-239.167 -493.333,-172.917c-109.167,63.333 -141.667,251.25 -95.833,486.25c4.583,23.333 9.583,46.25 15.416,69.583c-26.666,7.5 -52.916,15.834 -77.5,24.584c-222.5,77.083 -382.083,198.75 -382.083,324.583c0,130 170,260.417 401.25,339.583c18.75,6.25 37.5,12.5 56.667,17.917c-6.25,25 -11.667,49.583 -16.667,75c-43.75,231.25 -9.583,414.583 99.583,477.5c112.5,65 301.667,-1.667 485.834,-162.917c14.583,-12.916 29.166,-26.25 43.75,-40.416c18.333,17.916 37.5,35 56.666,51.666c178.334,153.334 354.584,215.417 463.334,152.5c112.5,-65 149.166,-262.083 101.666,-502.083c-3.75,-18.333 -7.916,-37.083 -12.5,-56.25c13.334,-3.75 26.25,-7.917 39.167,-12.083c240.417,-79.584 414.583,-208.334 414.583,-340.417c0,-126.25 -164.166,-248.75 -390.833,-326.667Zm-563.75,-353.75c155,-135 299.583,-187.916 365.417,-150c70.416,40.417 97.5,203.75 53.333,418.334c-2.917,14.166 -5.833,27.916 -9.583,41.666c-92.5,-20.833 -186.25,-35.833 -280.417,-44.166c-54.167,-77.5 -113.333,-151.667 -177.5,-221.25c16.25,-15.417 32.083,-30 48.75,-44.584Zm-482.083,896.667c21.25,36.25 42.916,72.5 65.833,107.917c-65,-7.084 -129.583,-17.5 -193.333,-31.25c18.333,-60 41.25,-122.084 67.916,-185.417c19.167,36.667 38.75,72.917 59.584,108.75Zm-126.25,-501.25c60,-13.333 123.75,-24.167 190,-32.5c-22.084,34.583 -43.75,70 -64.167,105.833c-20.417,35.417 -40.417,71.667 -59.167,108.334c-26.25,-62.084 -48.333,-122.917 -66.666,-181.667Zm114.166,287.083c27.5,-57.5 57.5,-113.75 89.167,-169.166c31.667,-55.417 65.833,-109.167 101.667,-162.084c62.5,-4.583 126.25,-7.083 191.25,-7.083c65,0 129.166,2.5 191.25,7.083c35.416,52.5 69.166,106.25 101.25,161.25c32.083,55 62.083,111.25 90.416,168.334c-27.916,57.5 -57.916,114.166 -90,170c-31.666,55.416 -65.416,109.166 -100.833,162.5c-62.083,4.583 -126.667,6.666 -192.083,6.666c-65.417,0 -128.75,-2.083 -190,-5.833c-36.25,-52.917 -70.417,-107.083 -102.5,-162.5c-32.084,-55.417 -61.667,-111.667 -89.584,-169.167Zm752.5,213.334c21.25,-36.667 41.25,-73.75 60.834,-111.25c26.666,60.416 50,121.666 70.416,184.583c-64.583,14.583 -130,25.833 -195.833,33.333c22.5,-35 43.75,-70.833 64.583,-106.666Zm60,-318.75c-19.583,-36.667 -39.583,-73.334 -60.416,-109.167c-20.417,-35.417 -41.667,-70.417 -63.75,-105c67.083,8.333 131.25,19.583 191.25,33.333c-19.167,61.667 -41.667,121.667 -67.084,180.834Zm-429.583,-468.75c43.75,47.5 85,97.5 123.333,149.166c-82.5,-3.75 -165.416,-3.75 -247.916,0c40.833,-53.75 82.916,-103.75 124.583,-149.166Zm-483.333,-255.417c70,-40.833 225.416,17.5 389.166,162.5c10.417,9.167 20.834,19.167 31.667,29.167c-64.583,69.583 -124.167,143.75 -178.75,221.25c-94.167,8.333 -187.5,22.916 -280,43.333c-5.417,-21.25 -10,-42.917 -14.583,-64.583c-39.167,-201.667 -13.334,-353.75 52.5,-391.667Zm-102.084,1098.33c-17.5,-5 -34.583,-10.416 -51.666,-16.25c-88.75,-27.916 -189.584,-72.083 -262.5,-130c-42.084,-29.166 -70.417,-74.166 -78.334,-124.583c0,-76.25 131.667,-173.75 321.667,-240c23.75,-8.333 47.917,-15.833 72.083,-22.917c28.334,90.417 62.5,179.167 102.084,265c-40,87.084 -74.584,177.084 -103.334,268.75Zm485.834,408.334c-68.75,62.916 -148.334,112.916 -235,147.083c-46.25,22.083 -99.584,24.167 -147.084,5.417c-66.25,-38.334 -93.75,-185.417 -56.25,-383.334c4.584,-23.333 9.584,-46.666 15.417,-69.583c93.333,20 187.5,33.75 282.917,40.833c55,77.917 115.416,152.5 180,222.5c-13.334,12.917 -26.667,25.417 -40,37.084Zm102.083,-101.25c-42.5,-45.834 -85,-96.667 -126.25,-151.25c40,1.666 81.25,2.5 122.917,2.5c42.916,-0 85,-0.834 126.666,-2.917c-38.333,52.917 -79.583,103.333 -123.333,151.667Zm544.583,125c-3.75,50.833 -28.75,98.333 -68.75,130.416c-66.25,38.334 -207.5,-11.666 -360,-142.5c-17.5,-15 -35,-31.25 -52.916,-47.916c63.75,-70.417 122.5,-145 175.833,-223.334c95.417,-7.916 190.417,-22.5 284.167,-43.75c4.166,17.084 7.916,34.167 11.25,50.834c20.416,90 23.75,183.75 10.416,276.25Zm75.834,-447.917c-11.667,3.75 -23.334,7.5 -35.417,10.833c-29.167,-90.833 -65,-179.583 -106.25,-265.833c40,-85 73.75,-172.5 102.083,-262.083c21.667,6.25 42.5,12.916 62.5,19.583c194.167,66.667 330.417,165.833 330.417,241.667c0,81.666 -145.417,187.083 -353.333,255.833Zm-623.75,-62.5c105.416,0 190.833,-85.417 190.833,-190.833c0,-105.417 -85.417,-190.834 -190.833,-190.834c-105.417,0 -190.834,85.417 -190.834,190.834c0,105.416 85.417,190.833 190.834,190.833Z" style="fill:#fff;fill-rule:nonzero;"/></svg>