<?xml version="1.0" encoding="UTF-8" standalone="no"?><!DOCTYPE svg PUBLIC "-//W3C//DTD SVG 1.1//EN" "http://www.w3.org/Graphics/SVG/1.1/DTD/svg11.dtd"><svg width="100%" height="100%" viewBox="0 0 1867 2134" version="1.1" xmlns="http://www.w3.org/2000/svg" xmlns:xlink="http://www.w3.org/1999/xlink" xml:space="preserve" xmlns:serif="http://www.serif.com/" style="fill-rule:evenodd;clip-rule:evenodd;stroke-linejoin:round;stroke-miterlimit:2;"><path d="M1866.67,874.625c-183.411,0.439 -362.402,-56.785 -511.542,-163.542l0,744.667c-0.136,371.457 -305.834,677.043 -677.292,677.043c-371.551,-0 -677.291,-305.74 -677.291,-677.292c-0,-371.551 305.74,-677.291 677.291,-677.291c31.111,-0 62.184,2.143 93,6.415l0,374.542c-30.186,-9.495 -61.647,-14.327 -93.291,-14.327c-170.564,0 -310.917,140.353 -310.917,310.917c0,170.564 140.353,310.917 310.917,310.917c170.564,-0 310.916,-140.353 310.916,-310.917c0,-0.002 0,-0.005 0,-0.007l0,-1455.75l366.667,0c-0.255,30.964 2.34,61.886 7.75,92.375c25.739,137.494 107.043,258.477 224.625,334.25c82.798,54.747 179.905,83.938 279.167,83.917l-0,364.083Z" style="fill:#fff;fill-rule:nonzero;"/></svg>