<?xml version="1.0" encoding="UTF-8" standalone="no"?><!DOCTYPE svg PUBLIC "-//W3C//DTD SVG 1.1//EN" "http://www.w3.org/Graphics/SVG/1.1/DTD/svg11.dtd"><svg width="100%" height="100%" viewBox="0 0 2400 2134" version="1.1" xmlns="http://www.w3.org/2000/svg" xmlns:xlink="http://www.w3.org/1999/xlink" xml:space="preserve" xmlns:serif="http://www.serif.com/" style="fill-rule:evenodd;clip-rule:evenodd;stroke-linejoin:round;stroke-miterlimit:2;"><path d="M2290.23,517.013c-26.171,-98.542 -103.279,-176.151 -201.183,-202.488c-177.459,-47.858 -889.046,-47.858 -889.046,-47.858c-0,-0 -711.583,-0 -889.046,47.858c-97.904,26.342 -175.012,103.946 -201.183,202.488c-47.55,178.612 -47.55,551.27 -47.55,551.27c-0,0 -0,372.659 47.55,551.271c26.171,98.542 103.279,172.917 201.183,199.254c177.463,47.859 889.046,47.859 889.046,47.859c-0,-0 711.583,-0 889.046,-47.859c97.904,-26.337 175.012,-100.712 201.183,-199.254c47.55,-178.612 47.55,-551.271 47.55,-551.271c0,0 0,-372.658 -47.55,-551.271Zm-1322.96,889.617l-0,-676.691l594.746,338.354l-594.746,338.337Z" style="fill:#fff;fill-rule:nonzero;"/></svg>